<?xml version="1.0" encoding="UTF-8" standalone="no"?>
<!-- Generator: Adobe Illustrator 16.0.0, SVG Export Plug-In . SVG Version: 6.00 Build 0)  -->

<svg
   xmlns:dc="http://purl.org/dc/elements/1.1/"
   xmlns:cc="http://creativecommons.org/ns#"
   xmlns:rdf="http://www.w3.org/1999/02/22-rdf-syntax-ns#"
   xmlns:svg="http://www.w3.org/2000/svg"
   xmlns="http://www.w3.org/2000/svg"
   xmlns:sodipodi="http://sodipodi.sourceforge.net/DTD/sodipodi-0.dtd"
   xmlns:inkscape="http://www.inkscape.org/namespaces/inkscape"
   version="1.1"
   id="Layer_1"
   x="0px"
   y="0px"
   width="512px"
   height="512px"
   viewBox="0 0 512 512"
   enable-background="new 0 0 512 512"
   xml:space="preserve"
   inkscape:version="0.91 r13725"
   sodipodi:docname="cloud.svg"><metadata
     id="metadata3390"><rdf:RDF><cc:Work
         rdf:about=""><dc:format>image/svg+xml</dc:format><dc:type
           rdf:resource="http://purl.org/dc/dcmitype/StillImage" /></cc:Work></rdf:RDF></metadata><defs
     id="defs3388" /><sodipodi:namedview
     pagecolor="#ffffff"
     bordercolor="#666666"
     borderopacity="1"
     objecttolerance="10"
     gridtolerance="10"
     guidetolerance="10"
     inkscape:pageopacity="0"
     inkscape:pageshadow="2"
     inkscape:window-width="1920"
     inkscape:window-height="1146"
     id="namedview3386"
     showgrid="false"
     inkscape:zoom="0.93554688"
     inkscape:cx="149.23341"
     inkscape:cy="308.91438"
     inkscape:window-x="1024"
     inkscape:window-y="80"
     inkscape:window-maximized="1"
     inkscape:current-layer="Layer_1" /><path
     d="m 192,96 c -53.031,0 -96,42.969 -96,96 0,12.625 2.594,24.625 7.031,35.688 C 62.187,238.75 32,275.688 32,320 c 0,53.031 42.969,96 96,96 l 272,0 c 44.188,0 80,-35.813 80,-80 0,-44.187 -35.813,-80 -80,-80 -2.453,0 -4.75,0.5 -7.141,0.719 4.5,-10 7.141,-21.031 7.141,-32.719 0,-44.188 -35.813,-80 -80,-80 -14.438,0 -27.797,4.125 -39.484,10.813 C 265.984,120.25 231.844,96 192,96 m 0,-32 c 40.938,0 78.531,19.344 102.344,51.063 8.39,-2.032 16.953,-3.063 25.656,-3.063 61.75,0 112,50.25 112,112 0,1.563 -0.031,3.094 -0.094,4.625 C 478.172,242.375 512,285.313 512,336 c 0,61.75 -50.25,112 -112,112 l -272,0 C 57.406,448 0,390.594 0,320 0,273.344 25.656,231.187 65.156,208.875 64.375,203.313 64,197.656 64,192 64,121.438 121.406,64 192,64 l 0,0 z"
     id="path3384"
     inkscape:connector-curvature="0" /><path
     style="fill:#ffffff"
     d="m 117.57829,415.22155 c -4.85936,-0.52148 -13.9973,-2.53622 -19.151255,-4.22248 -32.538169,-10.64575 -57.29365,-38.26733 -64.145405,-71.57193 -4.355484,-21.17087 -1.521725,-42.54124 8.220785,-61.99582 6.971143,-13.92051 17.155103,-25.72554 30.449568,-35.29648 5.800778,-4.17609 17.887966,-10.29696 24.851775,-12.58478 2.792482,-0.91741 5.142422,-1.72783 5.222072,-1.80092 0.0797,-0.0731 -0.70579,-2.67494 -1.74545,-5.7819 -10.787544,-32.23812 -3.66681,-67.32905 18.90973,-93.18693 16.42239,-18.80928 41.06303,-30.913946 65.53014,-32.191558 22.4459,-1.17207 42.31298,4.268438 60.48192,16.562698 7.25588,4.9098 18.70491,16.17776 23.83001,23.45314 1.96715,2.79249 5.08605,8.02053 6.93089,11.61787 1.84484,3.59735 3.53944,6.54348 3.76577,6.54697 0.22633,0.004 2.51109,-1.04616 5.07725,-2.33257 12.60901,-6.32087 28.11755,-9.26212 41.27533,-7.82801 11.33313,1.23524 18.05588,3.15531 28.05845,8.01374 22.68002,11.01609 38.6262,32.15091 43.35983,57.46843 0.74347,3.9764 0.98851,7.67019 0.95728,14.43007 -0.048,10.38588 -1.04429,16.28196 -4.25858,25.20205 -1.04276,2.89378 -2.01712,5.62216 -2.16526,6.06308 -0.232,0.69055 0.97532,0.8067 8.70993,0.83792 7.83157,0.0316 9.78949,0.2246 15.31826,1.50983 20.08767,4.66964 36.19466,15.38392 48.05229,31.96412 16.76649,23.44414 19.22967,55.34147 6.27231,81.22423 -10.90701,21.78712 -29.41566,36.38099 -53.98301,42.56503 l -5.61169,1.41256 -146.17119,0.0612 c -80.39415,0.0337 -147.01294,-0.0291 -148.04175,-0.13955 z"
     id="path3392"
     inkscape:connector-curvature="0" /><path
     style="fill:#ffffff"
     d="M 117.31106,415.2252 C 98.816807,412.81551 81.199079,405.35954 67.607516,394.19025 33.392465,366.07296 22.672657,319.08871 41.429849,279.45519 52.451767,256.16613 72.961771,238.0084 97.803758,229.54676 c 2.792482,-0.95117 5.128172,-1.76041 5.190422,-1.7983 0.0622,-0.0379 -0.73773,-2.69299 -1.77772,-5.90021 -10.439827,-32.19516 -3.990183,-65.57702 17.7028,-91.62555 16.28523,-19.55501 41.46634,-32.276455 66.53377,-33.612718 28.26194,-1.506551 53.10847,7.502218 72.60298,26.324138 8.61404,8.31684 14.57579,16.39603 19.65125,26.63081 1.42124,2.86597 2.7751,5.21085 3.00859,5.21085 0.23348,0 2.52408,-1.05251 5.09024,-2.33892 18.13338,-9.09023 39.11514,-10.62625 58.77307,-4.30263 6.0795,1.95567 16.28351,7.11342 21.75677,10.99724 5.5843,3.9626 13.31194,11.45823 17.2114,16.69465 16.2863,21.87015 20.45966,49.05303 11.4556,74.61521 -1.29384,3.67317 -1.84158,5.90245 -1.45969,5.94093 0.33618,0.0339 3.01626,0.0162 5.95572,-0.0393 29.68576,-0.56068 58.0168,16.76926 71.60824,43.80238 13.09659,26.04888 11.21629,56.06784 -5.02851,80.28022 -11.35014,16.91706 -27.03242,27.75547 -48.40854,33.45638 l -5.34447,1.42534 -146.70564,0.0634 c -80.6881,0.0349 -147.42714,-0.0306 -148.30898,-0.14547 l 0,-1e-5 z"
     id="path3394"
     inkscape:connector-curvature="0" /><path
     style="fill:#ffffff"
     d="m 113.83716,414.71609 c -36.836971,-5.61062 -67.531686,-32.46847 -77.74452,-68.02637 -7.857435,-27.35714 -3.455437,-55.9042 12.243029,-79.39635 11.605073,-17.36653 29.319745,-30.88371 49.468089,-37.74661 2.792482,-0.95117 5.125502,-1.75774 5.184492,-1.79237 0.059,-0.0346 -0.85004,-3.05216 -2.02006,-6.70562 -3.418241,-10.6736 -4.441258,-17.29649 -4.458189,-28.86171 -0.01523,-10.39536 0.497843,-14.93098 2.671128,-23.61347 10.012751,-40.00196 45.702731,-69.770961 86.271901,-71.959361 17.96404,-0.969024 33.41289,1.997286 48.39692,9.292621 18.539,9.02615 34.53193,24.87538 43.75413,43.36097 1.34827,2.70257 2.66342,5.04479 2.92255,5.20494 0.25913,0.16015 2.66602,-0.79944 5.34864,-2.13242 10.93025,-5.43121 21.73827,-7.92646 34.25834,-7.90922 13.27889,0.0183 22.86677,2.21595 34.47182,7.90141 8.60284,4.21464 15.06325,8.7529 21.35703,15.00275 22.04495,21.89107 29.31259,53.0887 19.25627,82.66093 -1.02625,3.01786 -1.86591,5.64218 -1.86591,5.83183 0,0.18964 4.02839,0.4831 8.95198,0.65211 12.69261,0.43569 21.18904,2.45218 32.14707,7.62958 29.47908,13.92816 47.94848,46.05874 45.00401,78.29195 -1.79486,19.64839 -9.45983,36.08441 -23.29812,49.95827 -10.47843,10.50537 -21.31691,16.66453 -37.41872,21.26384 l -5.87891,1.67925 -146.97286,0.0932 c -125.88628,0.0798 -147.70131,-0.0177 -152.05011,-0.68013 z"
     id="path3396"
     inkscape:connector-curvature="0" /><path
     style="fill:#ffffff"
     d="m 115.4405,415.01402 c -13.15038,-1.68333 -28.921174,-7.60754 -40.083506,-15.05714 -22.330189,-14.9029 -36.91575,-37.24083 -41.7912,-64.00364 -1.578076,-8.66254 -1.566597,-23.32887 0.02519,-32.18957 6.177872,-34.38912 30.556111,-62.61586 64.079159,-74.19509 3.606874,-1.24586 4.943634,-1.95139 4.943634,-2.60923 0,-0.4959 -0.71224,-3.00872 -1.58275,-5.58403 -14.851703,-43.93716 5.54172,-93.19947 47.44492,-114.60784 14.07568,-7.191275 27.10328,-10.256293 43.65766,-10.271387 25.6324,-0.02337 48.11123,9.043337 66.17993,26.693317 8.57303,8.37435 13.48024,14.94509 19.2688,25.80082 l 3.04209,5.70505 5.07895,-2.3573 c 12.48311,-5.79381 21.77707,-7.93212 34.43023,-7.92155 12.76789,0.0107 22.63896,2.19425 33.54869,7.42131 23.8867,11.44456 39.61365,31.70069 44.82825,57.73823 0.7171,3.5806 0.95397,7.22048 0.93779,14.41067 -0.0244,10.84005 -0.91798,16.33965 -4.24237,26.10955 -1.01487,2.98255 -1.84699,5.56993 -1.84918,5.74973 -0.002,0.17982 4.02442,0.46463 8.94801,0.63291 5.79016,0.1979 10.65088,0.67341 13.76201,1.34626 30.16472,6.5239 53.7708,29.13926 61.22528,58.65575 7.13077,28.2347 -1.71881,58.08334 -23.11355,77.95947 -9.78478,9.09025 -20.44168,14.85049 -35.97395,19.44453 l -4.81002,1.42267 -147.24008,0.0756 c -80.98205,0.0416 -148.80334,-0.12451 -150.71399,-0.36908 z"
     id="path3398"
     inkscape:connector-curvature="0" /><path
     style="fill:#ffffff"
     d="m 115.4405,415.014 c -5.27478,-0.67518 -13.03672,-2.56322 -18.861395,-4.58788 -33.782409,-11.7428 -58.101213,-41.29673 -63.510864,-77.1829 -1.071422,-7.10753 -0.803489,-22.00712 0.530117,-29.47955 3.741928,-20.96667 14.94365,-40.95378 30.802477,-54.96051 8.826597,-7.79577 21.766665,-15.31946 33.002088,-19.18827 2.865967,-0.98687 5.210117,-2.05569 5.209217,-2.37516 -0.001,-0.31948 -0.81461,-3.22637 -1.80824,-6.45977 -4.166284,-13.55751 -5.463739,-26.16018 -4.032517,-39.16929 4.755327,-43.22374 37.925467,-77.71498 81.081827,-84.311194 7.95015,-1.215137 21.7093,-1.072319 29.89673,0.310324 19.99746,3.37705 36.35022,11.69092 50.83666,25.84575 8.40677,8.21433 13.26048,14.73285 19.00831,25.52806 l 3.03409,5.69844 5.13607,-2.4001 c 6.77114,-3.16417 14.74172,-5.79548 21.00737,-6.93511 6.94247,-1.26274 19.82522,-1.24521 26.98956,0.0367 28.89559,5.17038 53.0417,26.11214 61.9692,53.74545 3.05675,9.46161 3.74148,14.04054 3.71714,24.85762 -0.0244,10.86318 -0.96103,16.64534 -4.23339,26.13552 -1.00364,2.91065 -1.7197,5.46215 -1.59125,5.66998 0.12845,0.20784 4.14845,0.51737 8.93332,0.68785 13.40593,0.47763 22.82629,2.88223 33.98027,8.67368 17.0982,8.87785 30.67585,23.88853 37.70763,41.68743 10.32877,26.14427 5.90313,56.04879 -11.61491,78.48317 -10.54667,13.50654 -23.69145,22.08954 -43.29462,28.26961 l -5.40637,1.70441 -147.50731,0.0802 c -81.12902,0.0441 -149.07056,-0.11991 -150.98121,-0.36449 z"
     id="path3400"
     inkscape:connector-curvature="0" /><path
     style="fill:#ffffff"
     d="M 115.4405,415.00766 C 88.357636,411.50584 63.16176,395.65941 47.953107,372.56284 36.424502,355.05496 30.791976,333.18001 32.532243,312.67308 c 1.063446,-12.53143 3.667354,-22.22137 8.96759,-33.3712 10.858182,-22.84177 29.171382,-39.38587 54.433361,-49.17493 5.211176,-2.01935 6.400916,-2.6775 6.346946,-3.51108 -0.0366,-0.56424 -0.92818,-3.95574 -1.98146,-7.53666 -3.168416,-10.77205 -3.774938,-15.13073 -3.779305,-27.15938 -0.0043,-12.08227 0.719147,-17.36965 3.749185,-27.39785 4.77327,-15.79766 12.26328,-28.21382 24.25754,-40.21166 7.96527,-7.96765 14.31017,-12.59818 24.06937,-17.56592 15.77158,-8.02823 31.18993,-11.143639 50.10831,-10.12482 12.62335,0.679809 24.09931,3.79473 36.18557,9.82186 8.89141,4.43392 15.52615,9.16743 23.17602,16.53476 8.99487,8.66266 14.9699,16.78202 20.64962,28.06044 l 1.8507,3.675 5.16772,-2.4149 c 12.33829,-5.76571 21.70151,-7.88952 34.66743,-7.86343 13.39722,0.027 23.49328,2.39266 35.09529,8.22353 22.43483,11.27515 37.16249,30.44815 42.75649,55.66197 1.03526,4.66622 1.22152,7.03252 1.21223,15.40061 -0.0125,11.26798 -0.64286,15.38454 -3.92513,25.63362 -2.44077,7.62142 -3.41093,6.77507 8.23481,7.18387 37.12181,1.30306 67.64659,28.1162 74.89473,65.78793 1.26534,6.57651 1.2693,20.64478 0.008,27.25679 -3.05457,16.00857 -10.01021,29.75004 -20.90743,41.30447 -10.10095,10.71014 -20.51421,16.90559 -38.22877,22.74451 l -5.07724,1.67351 -147.77453,0.0763 c -81.276,0.042 -149.33779,-0.12577 -151.24844,-0.37281 z"
     id="path3402"
     inkscape:connector-curvature="0" /></svg>